<?xml version="1.0" encoding="UTF-8" standalone="no"?>
<svg
   enable-background="new 0 0 68 68"
   viewBox="0 0 68 68"
   version="1.1"
   id="svg6"
   sodipodi:docname="global-location.svg"
   inkscape:version="1.1.1 (c3084ef, 2021-09-22)"
   xmlns:inkscape="http://www.inkscape.org/namespaces/inkscape"
   xmlns:sodipodi="http://sodipodi.sourceforge.net/DTD/sodipodi-0.dtd"
   xmlns="http://www.w3.org/2000/svg"
   xmlns:svg="http://www.w3.org/2000/svg">
  <defs
     id="defs10" />
  <sodipodi:namedview
     id="namedview8"
     pagecolor="#ffffff"
     bordercolor="#666666"
     borderopacity="1.0"
     inkscape:pageshadow="2"
     inkscape:pageopacity="0.0"
     inkscape:pagecheckerboard="0"
     showgrid="false"
     inkscape:zoom="10"
     inkscape:cx="33.55"
     inkscape:cy="35"
     inkscape:window-width="1680"
     inkscape:window-height="1050"
     inkscape:window-x="0"
     inkscape:window-y="0"
     inkscape:window-maximized="0"
     inkscape:current-layer="svg6" />
  <path
     fill="#010101"
     d="M60.09586,35.74475C58.11771,24.80285,49.4094,16.06079,38.19095,14.28631   c0.00287-0.08167,0.02124-0.16528,0.02124-0.24628C38.21219,6.84961,32.36258,1,25.17264,1   C17.98221,1,12.1326,6.84961,12.1326,14.04004c0,1.89813,0.87195,4.67792,2.57269,8.24976   c-15.85834,16.78297-3.94167,44.7102,19.29694,44.7102c6.20221,0,11.90924-2.14581,16.43091-5.72625   c0.02179-0.01465,0.04736-0.02087,0.06812-0.03741c0.10156-0.08063,0.19635-0.16742,0.29657-0.24933   c0.06726-0.05518,0.133-0.11206,0.19977-0.16791C58.56362,54.51062,61.76419,44.80579,60.09586,35.74475z M50.4617,55.17334   c-0.02197-0.27441-0.15576-0.52734-0.37061-0.69971l-2.06006-1.65674l0.4873-0.42725   c0.22852-0.2002,0.35352-0.49365,0.33984-0.79688c-0.01367-0.30371-0.16455-0.58447-0.41016-0.76318l-2.3501-1.7124   c-0.13525-0.09863-0.29346-0.16162-0.45947-0.18359l-5.83936-0.76221l-1.8291-1.91162v-5.54004l6.3999-5.09668h3.08301   l0.16113,1.09229c0.04297,0.29248,0.21338,0.55078,0.46484,0.70557l2.52051,1.55225   c0.43799,0.27002,1.00879,0.16406,1.32031-0.24609l1.3584-1.78516h0.77002c0.09912,0,0.19824-0.01465,0.29297-0.04395   l3.71429-1.13849c0.00861,0.04407,0.02167,0.08655,0.03003,0.13068c1.56116,8.02883-1.04029,16.5989-7.36688,22.50562   L50.4617,55.17334z M37.91043,16.27685c2.25666,0.35094,4.6693,1.10429,6.86371,2.1781l-1.49896,0.48352   c-0.26025,0.08398-0.47461,0.27051-0.59326,0.5166l-1.7168,3.55469h-2.10938l-1.89746-3.73145   C37.58821,17.64673,37.82343,16.576,37.91043,16.27685z M25.17264,3c6.0874,0,11.03955,4.95264,11.03955,11.04004   c0,5.13979-8.16883,17.84917-11.03955,22.12305C22.28905,31.87457,14.1326,19.20751,14.1326,14.04004   C14.1326,7.95263,19.08524,3,25.17264,3z M15.65116,24.21484c0.94829,1.83915,2.36427,4.37285,4.06281,7.14661l-0.61359,0.37537   c-0.23682,0.14502-0.40283,0.38184-0.45801,0.6543L18.26493,34.25H17.3826c-0.2832,0-0.55273,0.12012-0.74268,0.33008   l-1.1001,1.21973c-0.16553,0.18408-0.25732,0.42236-0.25732,0.66992v1.66406l-1.59277,4.13525   c-2.07612-1.80933-2.06244-1.95676-2.47559-2.05908l-1.71033-0.42627C9.66763,33.89797,11.89608,28.43503,15.65116,24.21484z    M28.54374,64.38042c-0.04309-0.00983-0.08618-0.01984-0.12927-0.02991c-4.89468-1.14468-9.19074-3.74743-12.42975-7.25366   l0.01263-0.09735l1.9126-1.83154h5.53711l5.09668,6.40039V64.38042z M30.54374,64.75164v-3.53289   c0-0.22607-0.07666-0.4458-0.21777-0.62305l-5.61475-7.05078c-0.18945-0.23828-0.47754-0.37695-0.78223-0.37695h-6.4209   c-0.25781,0-0.50537,0.09961-0.69189,0.27783l-2.16602,2.07477c-2.97778-3.8197-4.85364-8.53644-5.13757-13.6734l0.97791,0.24365   l2.94531,2.63428c0.18506,0.16602,0.42334,0.25488,0.6665,0.25488c0.07813,0,0.15674-0.00928,0.23438-0.02783   c0.31934-0.07715,0.58057-0.30615,0.69873-0.61279l2.18018-5.66016c0.04443-0.11475,0.06689-0.23633,0.06689-0.35938V36.854   l0.54492-0.604h1.25488c0.47559,0,0.88525-0.33496,0.97998-0.80127l0.45361-2.2334l0.2525-0.15454   c1.99054,3.16132,3.55457,5.40912,3.58441,5.4519c0.00037,0.00055,0.00116,0.00073,0.00153,0.00128   c0.18713,0.26648,0.49219,0.42596,0.8183,0.42596c0.32666,0,0.6333-0.15967,0.82031-0.42773   c3.23951-4.64557,7.51931-11.57958,9.94067-16.83704l1.41772,2.78772c0.17041,0.33545,0.51465,0.54688,0.89111,0.54688h3.3501   c0.38379,0,0.7334-0.21973,0.90039-0.56494l1.80371-3.73438l2.85107-0.9198c5.03571,3.20953,8.80078,8.18347,10.44885,14.0177   l-3.69836,1.13354h-1.11572c-0.3125,0-0.60645,0.146-0.7959,0.39453l-1.10986,1.4585l-1.35205-0.83252l-0.21924-1.48535   c-0.07227-0.49072-0.49316-0.854-0.98926-0.854h-4.2959c-0.22607,0-0.4458,0.07666-0.62305,0.21777l-7.05029,5.61475   c-0.23828,0.18994-0.37695,0.47754-0.37695,0.78223v6.42334c0,0.25781,0.09961,0.50537,0.27734,0.69141l2.3501,2.45605   c0.15771,0.16455,0.36719,0.27051,0.59326,0.30029l5.93555,0.7749l1.13379,0.82617l-0.44238,0.38818   c-0.22217,0.19482-0.34668,0.47803-0.34082,0.77344c0.00635,0.29541,0.14307,0.57275,0.37354,0.75781l2.65186,2.13281   l0.33667,4.2226c-4.12256,3.14337-9.26416,5.01519-14.83667,5.01519C32.82798,64.99999,31.67441,64.91192,30.54374,64.75164z"
     id="path2" />
  <path
     fill="#010101"
     d="M25.17215,20.96679c3.81836,0,6.9248-3.10645,6.9248-6.9248s-3.10645-6.92481-6.9248-6.92481   c-3.81787,0-6.92432,3.10645-6.92432,6.92481S21.35428,20.96679,25.17215,20.96679z M25.17215,9.11718   c2.71533,0,4.9248,2.20947,4.9248,4.9248s-2.20947,4.9248-4.9248,4.9248s-4.92432-2.20947-4.92432-4.9248   S22.45682,9.11718,25.17215,9.11718z"
     id="path4" />
  <path
     style="fill:#ff8080;stroke-width:0.0945758"
     d="M 23.905769,34.11822 C 19.581024,27.520834 16.20858,21.277555 14.927196,17.496523 c -0.655294,-1.9336 -0.814057,-2.975048 -0.679333,-4.456269 0.442444,-4.8644698 4.046355,-8.8199639 8.923208,-9.7937208 1.34986,-0.2695255 3.38507,-0.2038022 4.72879,0.1527076 3.527816,0.9359845 6.526057,3.7098498 7.65949,7.0862882 0.555955,1.656161 0.7253,3.291092 0.484122,4.673946 -0.587106,3.36632 -3.630415,9.539241 -8.519219,17.280024 -0.968027,1.532745 -2.307412,3.546593 -2.358794,3.546593 -0.01939,0 -0.586252,-0.840543 -1.259691,-1.867872 z m 2.203844,-13.176596 c 2.261427,-0.314536 4.282837,-1.764438 5.281996,-3.788634 0.526369,-1.06637 0.713044,-1.892245 0.715233,-3.164287 0.0037,-2.138518 -0.93572,-4.078309 -2.627417,-5.4254248 -1.245875,-0.9921023 -2.610387,-1.451285 -4.322262,-1.4545185 -1.26353,-0.00239 -1.952082,0.159647 -3.124599,0.7352962 -1.896401,0.9310415 -3.292448,2.7626571 -3.690207,4.8415591 -0.820865,4.29027 2.304977,8.162222 6.73703,8.3451 0.16529,0.0068 0.628893,-0.03327 1.030226,-0.08909 z"
     id="path123" />
  <path
     style="fill:#5fbcd3;stroke-width:0.0945758"
     d="m 32.061196,64.876961 c -0.104033,-0.01932 -0.476425,-0.06207 -0.827538,-0.09501 l -0.638387,-0.05988 v -1.830543 c 0,-1.006799 -0.03792,-1.929073 -0.08427,-2.049496 -0.156431,-0.406421 -5.871186,-7.496544 -6.13801,-7.615243 -0.328768,-0.146255 -6.879876,-0.170443 -7.257695,-0.0268 -0.138424,0.05263 -0.748992,0.582514 -1.356818,1.177523 L 14.653336,55.45936 14.088838,54.660434 C 11.634493,51.186839 10.100252,47.177868 9.6791307,43.137866 9.6163018,42.535121 9.589653,42.017209 9.6199112,41.98695 c 0.030258,-0.03026 0.236422,-0.0062 0.4581418,0.05354 0.313974,0.08454 0.737886,0.410092 1.916829,1.472049 1.514078,1.363836 1.859265,1.581072 2.360157,1.485321 0.477333,-0.09125 0.687494,-0.492604 1.85401,-3.540703 1.130122,-2.953002 1.14561,-3.004027 1.14561,-3.774105 0,-0.691113 0.02767,-0.816904 0.241253,-1.09693 l 0.241252,-0.316299 h 0.839094 c 0.803256,0 0.851023,-0.01193 1.118372,-0.279277 0.241275,-0.241275 0.309414,-0.43569 0.500744,-1.428718 0.309151,-1.604544 0.327093,-1.616853 0.945175,-0.648459 1.19902,1.87859 2.963343,4.504412 3.187094,4.743316 0.31737,0.338862 0.757044,0.418969 1.184983,0.215898 0.743206,-0.352675 6.055898,-8.818462 8.789421,-14.005966 0.546221,-1.036581 1.112222,-2.154264 1.257781,-2.48374 l 0.264652,-0.599046 0.734114,1.449219 c 0.403762,0.79707 0.826651,1.524152 0.939753,1.615736 0.1825,0.147779 0.441543,0.166517 2.302074,0.166517 1.765848,0 2.130392,-0.02379 2.311782,-0.150835 0.128083,-0.08971 0.601806,-0.950599 1.16904,-2.124475 l 0.953694,-1.973639 1.287441,-0.429072 c 0.708094,-0.23599 1.368701,-0.429072 1.468017,-0.429072 0.09932,0 0.546136,0.262829 0.992934,0.584065 4.279312,3.076712 7.414586,7.268313 9.074275,12.131551 0.212116,0.621544 0.3764,1.138204 0.365074,1.148131 -0.01132,0.0099 -0.809828,0.256816 -1.774451,0.54864 -1.318957,0.39902 -1.905252,0.531913 -2.364395,0.535927 -0.958857,0.0084 -1.186201,0.129467 -1.845718,0.983032 -0.319544,0.413561 -0.627559,0.767454 -0.68448,0.786427 -0.108817,0.03627 -1.156836,-0.595569 -1.263189,-0.761565 -0.03402,-0.05309 -0.09007,-0.334712 -0.124556,-0.625815 C 49.365344,34.38994 49.238906,34.023327 48.97523,33.81592 48.739902,33.63081 48.607515,33.621697 46.153901,33.621697 h -2.574415 l -3.739664,2.977723 c -2.909425,2.316641 -3.762824,3.04416 -3.843985,3.276977 -0.136231,0.390791 -0.144106,6.774379 -0.0088,7.130268 0.129484,0.340569 2.610087,2.940052 2.919942,3.059878 0.13607,0.05262 1.581434,0.267572 3.21192,0.477671 l 2.964521,0.381997 0.487496,0.350232 c 0.268123,0.192628 0.505867,0.364144 0.52832,0.381149 0.02245,0.017 -0.09795,0.174088 -0.267549,0.349076 -0.361702,0.373181 -0.481349,0.932901 -0.280328,1.311398 0.07081,0.133331 0.745857,0.740372 1.500099,1.348979 0.754242,0.608607 1.379704,1.113696 1.389916,1.122421 0.01021,0.0087 0.09107,0.945901 0.179698,2.082615 l 0.161134,2.066754 -0.226988,0.177149 c -0.706678,0.551517 -2.246876,1.509429 -3.332791,2.072798 -2.447332,1.269668 -4.808191,2.039191 -7.695002,2.508188 -0.852455,0.138493 -4.961237,0.273784 -5.466231,0.179991 z"
     id="path316" />
  <path
     style="fill:#ff5555"
     d="M 21.957608,29.858529 C 20.44296,27.186338 18.637392,24.067467 17.945234,22.927703 17.253076,21.78794 16.145404,19.048504 15.483741,16.840068 14.469392,13.454474 14.535818,12.331415 15.907285,9.6792913 19.377658,2.9683289 26.880546,1.6805455 32.1,6.9 c 4.511025,4.511025 4.398603,7.562146 -0.637294,17.296189 -5.847219,11.302272 -6.191896,11.507601 -9.505098,5.66234 z M 29.865141,19.42742 c 3.444387,-2.709355 3.520544,-7.132644 0.180314,-10.4728745 -4.446482,-4.446482 -10.913483,-2.1962263 -12.154186,4.2291665 -0.495874,2.568054 -0.118491,3.679975 1.951534,5.75 3.105339,3.105339 6.49021,3.27208 10.022338,0.493708 z"
     id="path503" />
  <path
     style="fill:#ffffff;stroke-width:0.1"
     d="m 12.8,41.38685 c -1.108417,-1.03448 -1.379736,-1.200302 -2.337158,-1.428393 -0.460437,-0.109692 -0.8600436,-0.222325 -0.8880141,-0.250296 -0.02797,-0.02797 0.00303,-0.623924 0.068879,-1.324342 0.4888141,-5.198992 2.3891461,-9.756049 5.7417991,-13.769016 l 0.238269,-0.285198 0.981746,1.785198 c 0.53996,0.981858 1.440108,2.556839 2.000329,3.499957 l 1.018583,1.714761 -0.439527,0.309807 C 18.679105,31.99585 18.641312,32.077258 18.402344,33.325 L 18.225188,34.25 H 17.63102 c -0.326793,0 -0.679159,0.04548 -0.783036,0.101079 -0.103877,0.05559 -0.505918,0.460879 -0.893426,0.900634 L 15.25,36.051269 v 1.001707 1.001707 l -0.75609,1.972658 c -0.415849,1.084963 -0.787099,2.002693 -0.825,2.039402 C 13.63101,42.103452 13.24,41.7975 12.8,41.38685 Z"
     id="path735" />
  <path
     style="fill:#ffffff;stroke-width:0.1"
     d="M 26.983583,63.897797 C 23.140176,62.716818 19.882507,60.790913 16.90745,57.940876 l -0.89681,-0.859123 0.94468,-0.912182 0.94468,-0.912183 2.767758,-0.0037 2.767758,-0.0037 2.507242,3.150797 2.507242,3.150797 v 1.349203 c 0,1.220033 -0.01675,1.348765 -0.175,1.344624 -0.09625,-0.0025 -0.677388,-0.158949 -1.291417,-0.347624 z"
     id="path811" />
  <path
     style="fill:#ffffff;stroke-width:0.1"
     d="m 50.745786,58.095821 c -0.02273,-1.056386 -0.283827,-3.244939 -0.408328,-3.422689 -0.08207,-0.117177 -0.610684,-0.581747 -1.174687,-1.032377 l -1.025461,-0.819327 0.343123,-0.360714 c 0.404059,-0.424773 0.486385,-0.691415 0.357546,-1.158034 -0.07923,-0.286943 -0.322508,-0.507734 -1.500267,-1.361589 L 45.932008,48.921981 42.916004,48.528652 39.9,48.135323 38.975,47.219636 38.05,46.30395 38.057055,43.501975 38.06411,40.7 41.24755,38.175 44.430991,35.65 h 1.487371 1.487372 l 0.110979,0.704801 c 0.06104,0.38764 0.186957,0.788756 0.27982,0.891368 0.09286,0.102612 0.806741,0.572952 1.586396,1.045199 1.38956,0.841675 1.753288,0.972765 2.211354,0.796988 0.08835,-0.0339 0.522483,-0.528904 0.964734,-1.1 L 53.363109,36.95 h 0.509359 c 0.33597,0 1.120435,-0.189136 2.304495,-0.555617 0.987325,-0.30559 1.812738,-0.538015 1.834253,-0.5165 0.02151,0.02151 0.115574,0.507792 0.209021,1.080617 0.247502,1.517167 0.246345,5.517919 -0.002,7.087935 -0.619648,3.916573 -2.175316,7.691723 -4.451944,10.803565 -0.654037,0.89398 -1.918296,2.375014 -2.557332,2.995821 -0.374071,0.363401 -0.45969,0.409619 -0.463125,0.25 z"
     id="path850" />
  <path
     style="fill:#ffffff;stroke-width:0.1"
     d="m 37.958475,21.118058 -0.941525,-1.833076 0.262664,-0.742491 c 0.144466,-0.40837 0.356307,-1.068741 0.47076,-1.467491 0.114452,-0.39875 0.257021,-0.725 0.31682,-0.725 0.322146,0 2.547095,0.56396 3.514763,0.890891 1.428293,0.482554 2.980737,1.138584 2.888962,1.220814 -0.03901,0.03495 -0.384153,0.165937 -0.766995,0.291086 -0.382842,0.125148 -0.778108,0.321967 -0.878368,0.437376 C 42.725296,19.305575 42.261177,20.1875 41.794181,21.15 L 40.945098,22.9 39.922549,22.925567 38.9,22.951134 Z"
     id="path889" />
  <path
     style="fill:#ffffff;stroke-width:0.1"
     d="m 24.35,18.840885 c -1.486814,-0.255768 -2.868152,-1.316571 -3.543933,-2.721577 -1.474552,-3.06572 0.596728,-6.6209981 4.037602,-6.9303985 2.985576,-0.2684605 5.624832,2.6130185 5.123796,5.5940415 -0.446837,2.658546 -3.005931,4.50718 -5.617465,4.057934 z"
     id="path928" />
</svg>
